<svg width="77" height="77" viewBox="0 0 77 77" fill="none" xmlns="http://www.w3.org/2000/svg">
<g id="drk_logo_container">
<g id="drk_logo">
<g id="right_arrow2">
<mask id="path-1-inside-1_108_97" fill="white">
<path d="M62.5196 27.5138C62.1732 27.8564 62 28.262 62 28.7306C62 29.1983 62.1732 29.6034 62.5196 29.946L72.6697 39.9829L62.485 50.054C62.1617 50.3737 62 50.7734 62 51.253C62 51.7325 62.1732 52.1436 62.5196 52.4862C62.8661 52.8287 63.2762 53 63.7501 53C64.2231 53 64.6328 52.8287 64.9792 52.4862L76.6189 40.942C76.7575 40.805 76.8559 40.6566 76.9141 40.4967C76.9714 40.3368 77 40.1656 77 39.9829C77 39.8002 76.9714 39.6289 76.9141 39.469C76.8559 39.3092 76.7575 39.1607 76.6189 39.0237L64.9446 27.4796C64.6212 27.1599 64.2231 27 63.7501 27C63.2762 27 62.8661 27.1713 62.5196 27.5138Z"/>
</mask>
<path d="M62.5196 27.5138C62.1732 27.8564 62 28.262 62 28.7306C62 29.1983 62.1732 29.6034 62.5196 29.946L72.6697 39.9829L62.485 50.054C62.1617 50.3737 62 50.7734 62 51.253C62 51.7325 62.1732 52.1436 62.5196 52.4862C62.8661 52.8287 63.2762 53 63.7501 53C64.2231 53 64.6328 52.8287 64.9792 52.4862L76.6189 40.942C76.7575 40.805 76.8559 40.6566 76.9141 40.4967C76.9714 40.3368 77 40.1656 77 39.9829C77 39.8002 76.9714 39.6289 76.9141 39.469C76.8559 39.3092 76.7575 39.1607 76.6189 39.0237L64.9446 27.4796C64.6212 27.1599 64.2231 27 63.7501 27C63.2762 27 62.8661 27.1713 62.5196 27.5138Z" fill="#5ED5FA" stroke="black" stroke-width="2" mask="url(#path-1-inside-1_108_97)"/>
</g>
<g id="left_arrow2">
<mask id="path-2-inside-2_108_97" fill="white">
<path d="M12.0276 27.5145L0.380184 39.0396C0.241937 39.1768 0.144239 39.3254 0.0870968 39.4855C0.0290327 39.6456 0 39.8171 0 40C0 40.1829 0.0290327 40.3544 0.0870968 40.5145C0.144239 40.6746 0.241937 40.8232 0.380184 40.9604L12.0276 52.5198C12.3502 52.8399 12.7535 53 13.2373 53C13.7212 53 14.1359 52.8285 14.4816 52.4855C14.8272 52.1425 15 51.7423 15 51.285C15 50.8276 14.8272 50.4274 14.4816 50.0844L4.32028 40L14.4816 29.9156C14.8041 29.5954 14.9654 29.2012 14.9654 28.7329C14.9654 28.2636 14.7926 27.8575 14.447 27.5145C14.1014 27.1715 13.6982 27 13.2373 27C12.7765 27 12.3733 27.1715 12.0276 27.5145Z"/>
</mask>
<path d="M12.0276 27.5145L0.380184 39.0396C0.241937 39.1768 0.144239 39.3254 0.0870968 39.4855C0.0290327 39.6456 0 39.8171 0 40C0 40.1829 0.0290327 40.3544 0.0870968 40.5145C0.144239 40.6746 0.241937 40.8232 0.380184 40.9604L12.0276 52.5198C12.3502 52.8399 12.7535 53 13.2373 53C13.7212 53 14.1359 52.8285 14.4816 52.4855C14.8272 52.1425 15 51.7423 15 51.285C15 50.8276 14.8272 50.4274 14.4816 50.0844L4.32028 40L14.4816 29.9156C14.8041 29.5954 14.9654 29.2012 14.9654 28.7329C14.9654 28.2636 14.7926 27.8575 14.447 27.5145C14.1014 27.1715 13.6982 27 13.2373 27C12.7765 27 12.3733 27.1715 12.0276 27.5145Z" fill="#5ED5FA" stroke="black" stroke-width="2" mask="url(#path-2-inside-2_108_97)"/>
</g>
<path id="M3" d="M22.925 43.6C22.7584 43.2 22.5334 42.6917 22.25 42.0751C21.9834 41.4584 21.6917 40.7917 21.375 40.075C21.0584 39.3584 20.7167 38.625 20.35 37.875C20 37.1084 19.6667 36.3917 19.35 35.725C19.0334 35.0417 18.7334 34.4334 18.45 33.9C18.1834 33.3667 17.9667 32.9584 17.8 32.675C17.6167 34.6417 17.4667 36.775 17.35 39.075C17.2334 41.3584 17.1334 43.6667 17.05 46H14.675C14.7417 44.5 14.8167 42.9917 14.9 41.475C14.9834 39.9417 15.075 38.4417 15.175 36.975C15.2917 35.4917 15.4084 34.05 15.525 32.65C15.6584 31.25 15.8 29.925 15.95 28.675H18.075C18.525 29.4084 19.0084 30.275 19.525 31.275C20.0417 32.275 20.5584 33.325 21.075 34.425C21.5917 35.5084 22.0917 36.6 22.575 37.7C23.0584 38.7834 23.5 39.775 23.9 40.675C24.3 39.775 24.7417 38.7834 25.225 37.7C25.7084 36.6 26.2084 35.5084 26.725 34.425C27.2417 33.325 27.7584 32.275 28.275 31.275C28.7917 30.275 29.275 29.4084 29.725 28.675H31.85C32.4167 34.2584 32.8417 40.0334 33.1251 46H30.75C30.6667 43.6667 30.5667 41.3584 30.45 39.075C30.3334 36.775 30.1834 34.6417 30 32.675C29.8334 32.9584 29.6084 33.3667 29.325 33.9C29.0584 34.4334 28.7667 35.0417 28.45 35.725C28.1334 36.3917 27.7917 37.1084 27.425 37.875C27.075 38.625 26.7417 39.3584 26.425 40.075C26.1084 40.7917 25.8084 41.4584 25.5251 42.0751C25.2584 42.6917 25.0417 43.2 24.875 43.6H22.925Z" fill="#5ED5FA"/>
<path id="M3 (Stroke)" fill-rule="evenodd" clip-rule="evenodd" d="M22.2584 44.6L22.002 43.9847C21.8417 43.6 21.6222 43.1037 21.3414 42.4925L21.3367 42.4823L21.3322 42.472C21.0667 41.8581 20.7762 41.1939 20.4604 40.4792C20.1493 39.7751 19.8131 39.0534 19.4517 38.3143L19.4459 38.3024L19.4404 38.2903C19.1172 37.5825 18.8087 36.9182 18.5148 36.2975C18.4535 37.2097 18.3982 38.1524 18.3488 39.1257C18.2324 41.4038 18.1326 43.7074 18.0494 46.0357L18.015 47H13.6296L13.6761 45.9556C13.7429 44.4523 13.818 42.9407 13.9015 41.4208M17.6423 34.5121C17.6474 34.4483 17.6524 34.3846 17.6575 34.3211C17.6582 34.3125 17.6589 34.3039 17.6596 34.2953C17.704 33.7432 17.7508 33.2031 17.8001 32.675C17.9667 32.9584 18.1834 33.3667 18.4501 33.9C18.5197 34.0311 18.5903 34.1667 18.6619 34.3067C18.8818 34.7368 19.1112 35.2096 19.3501 35.725C19.6667 36.3917 20.0001 37.1084 20.3501 37.875C20.7167 38.625 21.0584 39.3584 21.3751 40.075C21.6917 40.7917 21.9834 41.4584 22.2501 42.0751C22.5334 42.6917 22.7584 43.2001 22.9251 43.6H24.8751C25.0417 43.2001 25.2584 42.6917 25.5251 42.0751C25.8084 41.4584 26.1084 40.7917 26.4251 40.075C26.7417 39.3584 27.0751 38.625 27.4251 37.875C27.7917 37.1084 28.1334 36.3917 28.4501 35.725C28.6936 35.1996 28.9223 34.7186 29.1362 34.2818C29.2005 34.1506 29.2634 34.0233 29.3251 33.9C29.6084 33.3667 29.8334 32.9584 30.0001 32.675C30.0497 33.2073 30.0969 33.7517 30.1416 34.3083C30.1423 34.3172 30.143 34.3261 30.1437 34.335C30.1475 34.3821 30.1513 34.4294 30.155 34.4767C30.2698 35.9273 30.3682 37.4601 30.4501 39.075C30.5667 41.3584 30.6667 43.6667 30.7501 46H33.1251C33.1092 45.6661 33.0929 45.3328 33.0762 45C32.7937 39.3876 32.385 33.9459 31.8501 28.675H29.7251C29.2751 29.4084 28.7917 30.275 28.2751 31.275C27.7584 32.275 27.2417 33.325 26.7251 34.425C26.2084 35.5084 25.7084 36.6 25.2251 37.7C24.9526 38.3108 24.6934 38.8924 24.4474 39.4448C24.257 39.8723 24.0746 40.2824 23.9001 40.675C23.7256 40.2824 23.5431 39.8723 23.3528 39.4448C23.1068 38.8924 22.8475 38.3108 22.5751 37.7C22.0917 36.6 21.5917 35.5084 21.0751 34.425C20.5584 33.325 20.0417 32.275 19.5251 31.275C19.0084 30.275 18.5251 29.4084 18.0751 28.675H15.9501C15.8001 29.925 15.6584 31.25 15.5251 32.65C15.4084 34.05 15.2917 35.4917 15.1751 36.975C15.0751 38.4417 14.9834 39.9417 14.9001 41.475C14.8352 42.6551 14.7754 43.8301 14.7207 45C14.7051 45.3338 14.6899 45.6671 14.6751 46H17.0501C17.1334 43.6667 17.2334 41.3584 17.3501 39.075C17.4313 37.4732 17.5287 35.9523 17.6423 34.5121ZM13.9015 41.4208C13.9851 39.8833 14.0771 38.3783 14.1774 36.907L14.1781 36.8966C14.2949 35.4118 14.4117 33.9686 14.5285 32.567L14.5295 32.5552C14.6635 31.148 14.8061 29.8149 14.9572 28.5559L15.0629 27.675H18.6347L18.9274 28.152C19.3934 28.9115 19.8888 29.8005 20.4135 30.816C20.936 31.8272 21.4578 32.8877 21.9789 33.9972C22.4992 35.0882 23.0027 36.1875 23.4894 37.2951C23.6298 37.6098 23.7667 37.9168 23.9001 38.216C24.0334 37.9168 24.1703 37.6099 24.3107 37.2953C24.7974 36.1876 25.3009 35.0883 25.8211 33.9974C26.3423 32.8878 26.8642 31.8273 27.3866 30.816C27.9114 29.8005 28.4067 28.9115 28.8727 28.152L29.1654 27.675H32.7537L32.845 28.5741C33.4135 34.1763 33.8398 39.9692 34.1239 45.9526L34.1737 47H29.7851L29.7507 46.0357C29.6676 43.7074 29.5678 41.4042 29.4514 39.1261C29.402 38.1527 29.3466 37.2095 29.2853 36.2973C28.9881 36.9227 28.6694 37.5911 28.3292 38.3022C27.9827 39.0449 27.6529 39.7705 27.3398 40.4792C27.0232 41.1957 26.7227 41.8634 26.4385 42.4823C26.1748 43.0921 25.9615 43.5926 25.7981 43.9847L25.5417 44.6H22.2584" fill="black"/>
<path id="M4" d="M50.925 49.6C50.7584 49.2 50.5334 48.6917 50.25 48.0751C49.9834 47.4584 49.6917 46.7917 49.375 46.075C49.0584 45.3584 48.7167 44.625 48.35 43.875C48 43.1084 47.6667 42.3917 47.35 41.725C47.0334 41.0417 46.7334 40.4334 46.45 39.9C46.1834 39.3667 45.9667 38.9584 45.8 38.675C45.6167 40.6417 45.4667 42.775 45.35 45.075C45.2334 47.3584 45.1334 49.6667 45.05 52H42.675C42.7417 50.5 42.8167 48.9917 42.9 47.475C42.9834 45.9417 43.075 44.4417 43.175 42.975C43.2917 41.4917 43.4084 40.05 43.525 38.65C43.6584 37.25 43.8 35.925 43.95 34.675H46.075C46.525 35.4084 47.0084 36.275 47.525 37.275C48.0417 38.275 48.5584 39.325 49.075 40.425C49.5917 41.5084 50.0917 42.6 50.575 43.7C51.0584 44.7834 51.5 45.775 51.9 46.675C52.3 45.775 52.7417 44.7834 53.225 43.7C53.7084 42.6 54.2084 41.5084 54.725 40.425C55.2417 39.325 55.7584 38.275 56.275 37.275C56.7917 36.275 57.275 35.4084 57.725 34.675H59.85C60.4167 40.2584 60.8417 46.0334 61.1251 52H58.75C58.6667 49.6667 58.5667 47.3584 58.45 45.075C58.3334 42.775 58.1834 40.6417 58 38.675C57.8334 38.9584 57.6084 39.3667 57.325 39.9C57.0584 40.4334 56.7667 41.0417 56.45 41.725C56.1334 42.3917 55.7917 43.1084 55.425 43.875C55.075 44.625 54.7417 45.3584 54.425 46.075C54.1084 46.7917 53.8084 47.4584 53.5251 48.0751C53.2584 48.6917 53.0417 49.2 52.875 49.6H50.925Z" fill="#5ED5FA"/>
<path id="M4 (Stroke)" fill-rule="evenodd" clip-rule="evenodd" d="M50.2584 50.6L50.002 49.9847C49.8417 49.6 49.6222 49.1037 49.3414 48.4925L49.3367 48.4823L49.3322 48.472C49.0667 47.8581 48.7762 47.1939 48.4604 46.4792C48.1493 45.7751 47.8131 45.0534 47.4517 44.3143L47.4459 44.3024L47.4404 44.2903C47.1172 43.5825 46.8087 42.9182 46.5148 42.2975C46.4535 43.2097 46.3982 44.1524 46.3488 45.1257C46.2324 47.4038 46.1326 49.7074 46.0494 52.0357L46.015 53H41.6296L41.6761 51.9556C41.7429 50.4523 41.818 48.9407 41.9015 47.4208M45.6423 40.5121C45.6474 40.4483 45.6524 40.3846 45.6575 40.3211C45.6582 40.3125 45.6589 40.3039 45.6596 40.2953C45.704 39.7432 45.7508 39.2031 45.8001 38.675C45.9667 38.9584 46.1834 39.3667 46.4501 39.9C46.5197 40.0311 46.5903 40.1667 46.6619 40.3067C46.8818 40.7368 47.1112 41.2096 47.3501 41.725C47.6667 42.3917 48.0001 43.1084 48.3501 43.875C48.7167 44.625 49.0584 45.3584 49.3751 46.075C49.6917 46.7917 49.9834 47.4584 50.2501 48.0751C50.5334 48.6917 50.7584 49.2001 50.9251 49.6H52.8751C53.0417 49.2001 53.2584 48.6917 53.5251 48.0751C53.8084 47.4584 54.1084 46.7917 54.4251 46.075C54.7417 45.3584 55.0751 44.625 55.4251 43.875C55.7917 43.1084 56.1334 42.3917 56.4501 41.725C56.6936 41.1996 56.9223 40.7186 57.1362 40.2818C57.2005 40.1506 57.2634 40.0233 57.3251 39.9C57.6084 39.3667 57.8334 38.9584 58.0001 38.675C58.0497 39.2073 58.0969 39.7517 58.1416 40.3083C58.1423 40.3172 58.143 40.3261 58.1437 40.335C58.1475 40.3821 58.1513 40.4294 58.155 40.4767C58.2698 41.9273 58.3682 43.4601 58.4501 45.075C58.5667 47.3584 58.6667 49.6667 58.7501 52H61.1251C61.1092 51.6661 61.0929 51.3328 61.0762 51C60.7937 45.3876 60.385 39.9459 59.8501 34.675H57.7251C57.2751 35.4084 56.7917 36.275 56.2751 37.275C55.7584 38.275 55.2417 39.325 54.7251 40.425C54.2084 41.5084 53.7084 42.6 53.2251 43.7C52.9526 44.3108 52.6934 44.8924 52.4474 45.4448C52.257 45.8723 52.0746 46.2824 51.9001 46.675C51.7256 46.2824 51.5431 45.8723 51.3528 45.4448C51.1068 44.8924 50.8475 44.3108 50.5751 43.7C50.0917 42.6 49.5917 41.5084 49.0751 40.425C48.5584 39.325 48.0417 38.275 47.5251 37.275C47.0084 36.275 46.5251 35.4084 46.0751 34.675H43.9501C43.8001 35.925 43.6584 37.25 43.5251 38.65C43.4084 40.05 43.2917 41.4917 43.1751 42.975C43.0751 44.4417 42.9834 45.9417 42.9001 47.475C42.8352 48.6551 42.7754 49.8301 42.7207 51C42.7051 51.3338 42.6899 51.6671 42.6751 52H45.0501C45.1334 49.6667 45.2334 47.3584 45.3501 45.075C45.4313 43.4732 45.5287 41.9523 45.6423 40.5121ZM41.9015 47.4208C41.9851 45.8833 42.0771 44.3783 42.1774 42.907L42.1781 42.8966C42.2949 41.4118 42.4117 39.9686 42.5285 38.567L42.5295 38.5552C42.6635 37.148 42.8061 35.8149 42.9572 34.5559L43.0629 33.675H46.6347L46.9274 34.152C47.3934 34.9115 47.8888 35.8005 48.4135 36.816C48.936 37.8272 49.4578 38.8877 49.9789 39.9972C50.4992 41.0882 51.0027 42.1875 51.4894 43.2951C51.6298 43.6098 51.7667 43.9168 51.9001 44.216C52.0334 43.9168 52.1703 43.6099 52.3107 43.2953C52.7974 42.1876 53.3009 41.0883 53.8211 39.9974C54.3423 38.8878 54.8642 37.8273 55.3866 36.816C55.9114 35.8005 56.4067 34.9115 56.8727 34.152L57.1654 33.675H60.7537L60.845 34.5741C61.4135 40.1763 61.8398 45.9692 62.1239 51.9526L62.1737 53H57.7851L57.7507 52.0357C57.6676 49.7074 57.5678 47.4042 57.4514 45.1261C57.402 44.1527 57.3466 43.2095 57.2853 42.2973C56.9881 42.9227 56.6694 43.5911 56.3292 44.3022C55.9827 45.0449 55.6529 45.7705 55.3398 46.4792C55.0232 47.1957 54.7227 47.8634 54.4385 48.4823C54.1748 49.0921 53.9615 49.5926 53.7981 49.9847L53.5417 50.6H50.2584" fill="black"/>
<g id="slash">
<mask id="path-7-inside-3_108_97" fill="white">
<path fill-rule="evenodd" clip-rule="evenodd" d="M47.889 24.3897C48.0125 24.4608 48.1208 24.5555 48.2076 24.6685C48.2944 24.7815 48.358 24.9105 48.3949 25.0481C48.4318 25.1857 48.4412 25.3293 48.4225 25.4705C48.4038 25.6118 48.3574 25.7479 48.286 25.8712L31.4355 55.0573C31.2916 55.3064 31.0547 55.4882 30.7769 55.5626C30.4991 55.6371 30.203 55.5981 29.9539 55.4543C29.7048 55.3104 29.523 55.0736 29.4486 54.7957C29.3741 54.5179 29.4131 54.2218 29.5569 53.9727L46.4075 24.7867C46.4786 24.6632 46.5733 24.555 46.6863 24.4682C46.7993 24.3813 46.9283 24.3177 47.0659 24.2808C47.2035 24.2439 47.3471 24.2346 47.4883 24.2533C47.6296 24.2719 47.7657 24.3183 47.889 24.3897Z"/>
</mask>
<path fill-rule="evenodd" clip-rule="evenodd" d="M47.889 24.3897C48.0125 24.4608 48.1208 24.5555 48.2076 24.6685C48.2944 24.7815 48.358 24.9105 48.3949 25.0481C48.4318 25.1857 48.4412 25.3293 48.4225 25.4705C48.4038 25.6118 48.3574 25.7479 48.286 25.8712L31.4355 55.0573C31.2916 55.3064 31.0547 55.4882 30.7769 55.5626C30.4991 55.6371 30.203 55.5981 29.9539 55.4543C29.7048 55.3104 29.523 55.0736 29.4486 54.7957C29.3741 54.5179 29.4131 54.2218 29.5569 53.9727L46.4075 24.7867C46.4786 24.6632 46.5733 24.555 46.6863 24.4682C46.7993 24.3813 46.9283 24.3177 47.0659 24.2808C47.2035 24.2439 47.3471 24.2346 47.4883 24.2533C47.6296 24.2719 47.7657 24.3183 47.889 24.3897Z" fill="#5ED5FA" stroke="black" stroke-width="1.4" mask="url(#path-7-inside-3_108_97)"/>
</g>
</g>
</g>
</svg>
