<svg width="77" height="77" viewBox="0 0 77 77" fill="none" xmlns="http://www.w3.org/2000/svg">
<g id="drk_personal_logo">
<g id="drk_logo">
<g id="right_arrow2" style="mix-blend-mode:lighten">
<path d="M73.0213 39.6273L73.3809 39.9829L73.0213 40.3384L62.8366 50.4095C62.6138 50.6298 62.5 50.8988 62.5 51.253C62.5 51.5966 62.6181 51.8803 62.8712 52.1306C63.1269 52.3835 63.4119 52.5 63.7501 52.5C64.087 52.5 64.3715 52.3838 64.6274 52.1309C64.6275 52.1308 64.6276 52.1307 64.6276 52.1306L76.2668 40.587L76.2674 40.5865C76.3606 40.4944 76.4143 40.4074 76.4438 40.3268C76.48 40.2254 76.5 40.1119 76.5 39.9829C76.5 39.8538 76.48 39.7404 76.4438 39.6389C76.4143 39.5583 76.3606 39.4714 76.2674 39.3792L64.593 27.8351C64.3674 27.612 64.0973 27.5 63.7501 27.5C63.4119 27.5 63.1269 27.6165 62.8712 27.8694C62.6156 28.1222 62.5 28.4014 62.5 28.7306C62.5 29.0586 62.6153 29.3374 62.8712 29.5904L73.0213 39.6273Z" fill="#5ED5FA"/>
<path d="M73.0213 39.6273L73.3809 39.9829L73.0213 40.3384L62.8366 50.4095C62.6138 50.6298 62.5 50.8988 62.5 51.253C62.5 51.5966 62.6181 51.8803 62.8712 52.1306C63.1269 52.3835 63.4119 52.5 63.7501 52.5C64.087 52.5 64.3715 52.3838 64.6274 52.1309C64.6275 52.1308 64.6276 52.1307 64.6276 52.1306L76.2668 40.587L76.2674 40.5865C76.3606 40.4944 76.4143 40.4074 76.4438 40.3268C76.48 40.2254 76.5 40.1119 76.5 39.9829C76.5 39.8538 76.48 39.7404 76.4438 39.6389C76.4143 39.5583 76.3606 39.4714 76.2674 39.3792L64.593 27.8351C64.3674 27.612 64.0973 27.5 63.7501 27.5C63.4119 27.5 63.1269 27.6165 62.8712 27.8694C62.6156 28.1222 62.5 28.4014 62.5 28.7306C62.5 29.0586 62.6153 29.3374 62.8712 29.5904L73.0213 39.6273Z" stroke="url(#paint0_linear_119_2)"/>
</g>
<g id="left_arrow2" style="mix-blend-mode:lighten">
<path d="M12.3799 27.8694L12.3793 27.8699L0.732394 39.3945C0.732303 39.3946 0.732211 39.3947 0.732119 39.3947C0.639311 39.4869 0.586565 39.5735 0.557998 39.6536L0.557128 39.656C0.520319 39.7575 0.5 39.8709 0.5 40C0.5 40.1291 0.520319 40.2425 0.557135 40.344L0.557992 40.3464C0.586594 40.4265 0.639418 40.5133 0.732394 40.6055L12.3799 52.1649C12.6023 52.3856 12.876 52.5 13.2373 52.5C13.5883 52.5 13.8767 52.3813 14.1294 52.1306C14.3872 51.8747 14.5 51.5998 14.5 51.285C14.5 50.9702 14.3872 50.6952 14.1294 50.4393L3.96807 40.3549L3.61047 40L3.96807 39.6451L14.1294 29.5607C14.3542 29.3376 14.4654 29.0725 14.4654 28.7329C14.4654 28.4024 14.3498 28.1225 14.0948 27.8694C13.8369 27.6135 13.5581 27.5 13.2373 27.5C12.9165 27.5 12.6377 27.6135 12.3799 27.8694Z" fill="#5ED5FA"/>
<path d="M12.3799 27.8694L12.3793 27.8699L0.732394 39.3945C0.732303 39.3946 0.732211 39.3947 0.732119 39.3947C0.639311 39.4869 0.586565 39.5735 0.557998 39.6536L0.557128 39.656C0.520319 39.7575 0.5 39.8709 0.5 40C0.5 40.1291 0.520319 40.2425 0.557135 40.344L0.557992 40.3464C0.586594 40.4265 0.639418 40.5133 0.732394 40.6055L12.3799 52.1649C12.6023 52.3856 12.876 52.5 13.2373 52.5C13.5883 52.5 13.8767 52.3813 14.1294 52.1306C14.3872 51.8747 14.5 51.5998 14.5 51.285C14.5 50.9702 14.3872 50.6952 14.1294 50.4393L3.96807 40.3549L3.61047 40L3.96807 39.6451L14.1294 29.5607C14.3542 29.3376 14.4654 29.0725 14.4654 28.7329C14.4654 28.4024 14.3498 28.1225 14.0948 27.8694C13.8369 27.6135 13.5581 27.5 13.2373 27.5C12.9165 27.5 12.6377 27.6135 12.3799 27.8694Z" stroke="url(#paint1_linear_119_2)"/>
</g>
<path id="M3" d="M22.925 43.6C22.7584 43.2 22.5334 42.6917 22.25 42.0751C21.9834 41.4584 21.6917 40.7917 21.375 40.075C21.0584 39.3584 20.7167 38.625 20.35 37.875C20 37.1084 19.6667 36.3917 19.35 35.725C19.0334 35.0417 18.7334 34.4334 18.45 33.9C18.1834 33.3667 17.9667 32.9584 17.8 32.675C17.6167 34.6417 17.4667 36.775 17.35 39.075C17.2334 41.3584 17.1334 43.6667 17.05 46H14.675C14.7417 44.5 14.8167 42.9917 14.9 41.475C14.9834 39.9417 15.075 38.4417 15.175 36.975C15.2917 35.4917 15.4084 34.05 15.525 32.65C15.6584 31.25 15.8 29.925 15.95 28.675H18.075C18.525 29.4084 19.0084 30.275 19.525 31.275C20.0417 32.275 20.5584 33.325 21.075 34.425C21.5917 35.5084 22.0917 36.6 22.575 37.7C23.0584 38.7834 23.5 39.775 23.9 40.675C24.3 39.775 24.7417 38.7834 25.225 37.7C25.7084 36.6 26.2084 35.5084 26.725 34.425C27.2417 33.325 27.7584 32.275 28.275 31.275C28.7917 30.275 29.275 29.4084 29.725 28.675H31.85C32.4167 34.2584 32.8417 40.0334 33.1251 46H30.75C30.6667 43.6667 30.5667 41.3584 30.45 39.075C30.3334 36.775 30.1834 34.6417 30 32.675C29.8334 32.9584 29.6084 33.3667 29.325 33.9C29.0584 34.4334 28.7667 35.0417 28.45 35.725C28.1334 36.3917 27.7917 37.1084 27.425 37.875C27.075 38.625 26.7417 39.3584 26.425 40.075C26.1084 40.7917 25.8084 41.4584 25.5251 42.0751C25.2584 42.6917 25.0417 43.2 24.875 43.6H22.925Z" fill="#5ED5FA"/>
<path id="M4" d="M50.925 49.6C50.7584 49.2 50.5334 48.6917 50.25 48.0751C49.9834 47.4584 49.6917 46.7917 49.375 46.075C49.0584 45.3584 48.7167 44.625 48.35 43.875C48 43.1084 47.6667 42.3917 47.35 41.725C47.0334 41.0417 46.7334 40.4334 46.45 39.9C46.1834 39.3667 45.9667 38.9584 45.8 38.675C45.6167 40.6417 45.4667 42.775 45.35 45.075C45.2334 47.3584 45.1334 49.6667 45.05 52H42.675C42.7417 50.5 42.8167 48.9917 42.9 47.475C42.9834 45.9417 43.075 44.4417 43.175 42.975C43.2917 41.4917 43.4084 40.05 43.525 38.65C43.6584 37.25 43.8 35.925 43.95 34.675H46.075C46.525 35.4084 47.0084 36.275 47.525 37.275C48.0417 38.275 48.5584 39.325 49.075 40.425C49.5917 41.5084 50.0917 42.6 50.575 43.7C51.0584 44.7834 51.5 45.775 51.9 46.675C52.3 45.775 52.7417 44.7834 53.225 43.7C53.7084 42.6 54.2084 41.5084 54.725 40.425C55.2417 39.325 55.7584 38.275 56.275 37.275C56.7917 36.275 57.275 35.4084 57.725 34.675H59.85C60.4167 40.2584 60.8417 46.0334 61.1251 52H58.75C58.6667 49.6667 58.5667 47.3584 58.45 45.075C58.3334 42.775 58.1834 40.6417 58 38.675C57.8334 38.9584 57.6084 39.3667 57.325 39.9C57.0584 40.4334 56.7667 41.0417 56.45 41.725C56.1334 42.3917 55.7917 43.1084 55.425 43.875C55.075 44.625 54.7417 45.3584 54.425 46.075C54.1084 46.7917 53.8084 47.4584 53.5251 48.0751C53.2584 48.6917 53.0417 49.2 52.875 49.6H50.925Z" fill="#5ED5FA"/>
<g id="Mask group">
<path id="slash" fill-rule="evenodd" clip-rule="evenodd" d="M47.889 24.3897C48.0125 24.4608 48.1208 24.5555 48.2076 24.6685C48.2944 24.7815 48.358 24.9105 48.3949 25.0481C48.4318 25.1857 48.4412 25.3293 48.4225 25.4705C48.4038 25.6118 48.3574 25.7479 48.286 25.8712L31.4355 55.0573C31.2916 55.3064 31.0547 55.4882 30.7769 55.5626C30.4991 55.6371 30.203 55.5981 29.9539 55.4543C29.7048 55.3104 29.523 55.0736 29.4486 54.7957C29.3741 54.5179 29.4131 54.2218 29.5569 53.9727L46.4075 24.7867C46.4786 24.6632 46.5733 24.555 46.6863 24.4682C46.7993 24.3813 46.9283 24.3177 47.0659 24.2808C47.2035 24.2439 47.3471 24.2346 47.4883 24.2533C47.6296 24.2719 47.7657 24.3183 47.889 24.3897Z" fill="#5ED5FA"/>
</g>
</g>
</g>
<defs>
<linearGradient id="paint0_linear_119_2" x1="69.5" y1="53" x2="69.5" y2="27" gradientUnits="userSpaceOnUse">
<stop/>
<stop offset="0.0001" stop-opacity="0"/>
</linearGradient>
<linearGradient id="paint1_linear_119_2" x1="7.5" y1="53" x2="7.5" y2="27" gradientUnits="userSpaceOnUse">
<stop/>
<stop offset="0.0001" stop-opacity="0"/>
</linearGradient>
</defs>
</svg>
